<svg width="128" height="132" viewBox="0 0 128 132" xmlns="http://www.w3.org/2000/svg"><g fill="none"><path d="M63.129 0c3.767.011 5.12.977 6.74 4.175 1.472 2.89 2.336 4.777 2.591 5.662l.028.102c.944 3.72 1.12 7.227.526 10.518-2.877 12.868-11.892 19.029-23.258 23.504a213.45 213.45 0 0 0-24.073 11.27c-4.873 2.661-8.093 5.43-12.493 10.196-4.4 4.754-8.65 12.825-8.554 19.404.014.924-.35 1.424-1.095 1.503a.531.531 0 0 1-.58-.386C-.58 73.526-.945 61.195 1.867 48.952c.687-2.994 2.017-5.742 3.252-8.565a288.009 288.009 0 0 0 4.346-9.412c.93-2.097 2.608-4.325 5.034-6.687C27.056 9.971 44.24-.053 63.13 0Z" fill="#38BDF8"/><path d="M76.599 1.095c.78.007 1.627.14 2.543.397 15.513 4.303 35.886 16.107 36.625 34.327l.016.554c.977 9.692-3.209 19.115-9.53 26.446-4.973 4.944-9.534 8.353-13.684 10.228a1138.426 1138.426 0 0 0-31.104 14.564c-3.348 1.631-5.956 3.399-7.824 5.302-6.59 6.697-10.013 14.997-10.271 24.9-.1 3.914.436 6.99 1.61 9.23 1.467 2.798.74 3.595-2.179 2.393-4.465-1.835-9.123-4.11-13.222-7.309-5.453-4.271-11.763-8.886-15.337-15.347-3.95-7.159-5.646-15.005-3.489-23.076l3.392-8.307c4.636-8.371 12.944-13.405 21.444-17.215 8.51-3.831 17-7.448 25.383-11.967 3.642-1.967 6.428-3.896 8.36-5.785 10.153-9.938 13.9-25.511 6.794-38.54a.537.537 0 0 1 .473-.795Z" fill="#2DD4BF"/><path d="M51.023 111.084c1.094-2.823 2.125-6.236 3.595-8.597 2.218-3.563 5.206-6.411 8.962-8.543 3.75-2.133 7.62-4.04 11.613-5.72a547.605 547.605 0 0 0 19.469-8.63c4.84-2.264 10.872-6.064 14.532-9.981 4.089-4.38 7.577-8.286 10.067-14.017 1.892-5.415 2.676-11.05 2.352-16.908l-.044-.704c-.1-1.346.221-1.457.966-.333.05.071.203.433.461 1.084 3.687 9.14 5.318 18.525 4.893 28.152l-.042.826c-.179 7.348-1.04 13.055-2.586 17.119a204.96 204.96 0 0 0-1.232 3.364l-.608 1.7c-1.523 4.254-3.096 8.514-5.265 12.194-3.683 6.256-8.31 10.326-13.228 14.778l-.51.462c-12.472 9.917-29.333 15.992-45.335 14.425-4.154-.408-6.654-2.715-7.384-6.654-1.517-3.857-2.075-7.417-1.674-10.68l.998-3.337Z" fill="#38BDF8"/></g></svg>